<svg xmlns="http://www.w3.org/2000/svg" viewBox="0 0 390 844" role="img" aria-labelledby="title desc">
  <title id="title">Talk page screenshot preview</title>
  <desc id="desc">A public demo screenshot showing the Talk page and low-pressure AI recommendation.</desc>
  <rect width="390" height="844" fill="#e7e5e4"/>
  <rect x="0" y="0" width="390" height="844" fill="#fafaf9"/>
  <text x="24" y="44" fill="#0f766e" font-family="Arial, sans-serif" font-size="13" font-weight="700">NEARU</text>
  <text x="24" y="82" fill="#0f172a" font-family="Arial, sans-serif" font-size="34" font-weight="700">说说</text>
  <circle cx="342" cy="56" r="24" fill="#fef3c7"/>
  <text x="342" y="63" fill="#78350f" font-family="Arial, sans-serif" font-size="16" font-weight="700" text-anchor="middle">ot</text>
  <rect x="16" y="112" width="358" height="214" rx="16" fill="#0f766e"/>
  <circle cx="68" cy="164" r="34" fill="#ffffff"/>
  <text x="68" y="176" fill="#0f766e" font-family="Arial, sans-serif" font-size="32" text-anchor="middle">o</text>
  <text x="116" y="156" fill="#ffffff" font-family="Arial, sans-serif" font-size="22" font-weight="700">今天想先说点什么？</text>
  <text x="116" y="184" fill="#ccfbf1" font-family="Arial, sans-serif" font-size="15">身体和心情，都可以告诉我。</text>
  <rect x="32" y="210" width="326" height="78" rx="12" fill="#ffffff"/>
  <text x="48" y="254" fill="#64748b" font-family="Arial, sans-serif" font-size="16">我今天 very tired...</text>
  <rect x="32" y="298" width="326" height="44" rx="10" fill="#ffffff"/>
  <text x="195" y="326" fill="#115e59" font-family="Arial, sans-serif" font-size="16" font-weight="700" text-anchor="middle">模拟语音输入</text>
  <rect x="16" y="378" width="358" height="226" rx="16" fill="#ffffff" stroke="#e7e5e4"/>
  <text x="32" y="418" fill="#0f172a" font-family="Arial, sans-serif" font-size="18" font-weight="700">我听到了。</text>
  <rect x="32" y="442" width="326" height="92" rx="12" fill="#f5f5f4"/>
  <text x="48" y="474" fill="#0f172a" font-family="Arial, sans-serif" font-size="20" font-weight="700">1 分钟慢慢呼吸</text>
  <text x="48" y="506" fill="#475569" font-family="Arial, sans-serif" font-size="15">先不用分析原因，让身体慢下来。</text>
  <rect x="32" y="552" width="150" height="46" rx="10" fill="#0f766e"/>
  <text x="107" y="581" fill="#ffffff" font-family="Arial, sans-serif" font-size="16" font-weight="700" text-anchor="middle">Start</text>
  <rect x="198" y="552" width="150" height="46" rx="10" fill="#ffffff" stroke="#e7e5e4"/>
  <text x="273" y="581" fill="#0f172a" font-family="Arial, sans-serif" font-size="16" font-weight="700" text-anchor="middle">Skip</text>
  <rect x="0" y="760" width="390" height="84" fill="#ffffff" stroke="#e7e5e4"/>
  <text x="40" y="806" fill="#0f766e" font-family="Arial, sans-serif" font-size="15" font-weight="700">说说</text>
  <text x="118" y="806" fill="#64748b" font-family="Arial, sans-serif" font-size="15" font-weight="700">缓一缓</text>
  <text x="203" y="806" fill="#64748b" font-family="Arial, sans-serif" font-size="15" font-weight="700">动一动</text>
  <text x="286" y="806" fill="#64748b" font-family="Arial, sans-serif" font-size="15" font-weight="700">记录</text>
  <text x="344" y="806" fill="#64748b" font-family="Arial, sans-serif" font-size="15" font-weight="700">我的</text>
</svg>
